<svg xmlns="http://www.w3.org/2000/svg" viewBox="0 0 680 200"><defs><style>.cls-1{fill:#ff8000;}.cls-2{fill:#fff;}</style></defs><title>LieferandoDE-White-Logo-OnOrange-Horizontal-RGB</title><g id="Logo_Base"><rect class="cls-1" width="678.02" height="203"/></g><g id="LieferandoDE"><g id="LieferandoDE-2"><g id="LieferandoDE_Full_Colour"><g id="LieferandoDE-2-2"><path class="cls-2" d="M270.41,105.67a15.63,15.63,0,0,0-5.74-4.14,19,19,0,0,0-7.55-1.44,23.92,23.92,0,0,0-8.41,1.44,20,20,0,0,0-6.86,4.14,19.18,19.18,0,0,0-4.59,6.43,27.81,27.81,0,0,0,0,19,19.18,19.18,0,0,0,4.59,6.43,20.33,20.33,0,0,0,6.86,4.14,24.38,24.38,0,0,0,8.41,1.43,21.62,21.62,0,0,0,9.1-2,19.12,19.12,0,0,0,6-4.14,1.82,1.82,0,0,0,0-2.46l-5.47-4.05h0l-.39-.28a1.82,1.82,0,0,0-2.19.29,13.29,13.29,0,0,1-2.58,2.21,9,9,0,0,1-5,1.31,8.79,8.79,0,0,1-5.91-2.07,10.85,10.85,0,0,1-3.11-6.88.91.91,0,0,1,.77-.88h25.22a1.82,1.82,0,0,0,1.73-1.81v-1.93a25.85,25.85,0,0,0-1.27-8.37,18.71,18.71,0,0,0-3.63-6.43m-8,10.36H248.56a.92.92,0,0,1-.91-.86,7.8,7.8,0,0,1,.58-1.89A7,7,0,0,1,249.9,111a8.72,8.72,0,0,1,6.11-2.28,7.1,7.1,0,0,1,5.34,2.15,6.9,6.9,0,0,1,2,4.33.92.92,0,0,1-.91.86"/><path class="cls-2" d="M302.7,101.07h-6.22a.92.92,0,0,1-.88-.88v-3c0-2.54.48-4.23,1.43-5a6.46,6.46,0,0,1,4.31-1.25H304a1.81,1.81,0,0,0,1.77-1.78V82.66A1.83,1.83,0,0,0,304,80.87h-5.18A20.81,20.81,0,0,0,291,82.12a10.52,10.52,0,0,0-4.58,3.37,12.26,12.26,0,0,0-2.15,5,30.39,30.39,0,0,0-.56,6v3.78a.93.93,0,0,1-.88.78h-5.18a1.82,1.82,0,0,0-1.79,1.76v6a1.84,1.84,0,0,0,1.78,1.77h5.18a.91.91,0,0,1,.91.71v29a1.81,1.81,0,0,0,1.76,1.82h8.45a1.82,1.82,0,0,0,1.76-1.78v-29a.91.91,0,0,1,.85-.73h6.21a1.83,1.83,0,0,0,1.78-1.76v-6.07a1.84,1.84,0,0,0-1.8-1.76"/><path class="cls-2" d="M225.77,81.92a6.95,6.95,0,1,0,4.9,2.07,6.67,6.67,0,0,0-4.9-2.07"/><path class="cls-2" d="M229.92,101.07h-8.29a1.83,1.83,0,0,0-1.82,1.76V140.4a1.82,1.82,0,0,0,1.79,1.76H230a1.83,1.83,0,0,0,1.8-1.76V102.84a1.83,1.83,0,0,0-1.83-1.76"/><path class="cls-2" d="M373.52,100.12h-2.24a11.49,11.49,0,0,0-6.62,1.8,13.14,13.14,0,0,0-3.29,3.36h0l-.16.21h0a1,1,0,0,1-.11.17.62.62,0,0,1-.47.22.63.63,0,0,1-.63-.53v-2.51a1.83,1.83,0,0,0-1.83-1.79h-8.3a1.82,1.82,0,0,0-1.81,1.65v37.79a1.81,1.81,0,0,0,1.77,1.64h8.43a1.83,1.83,0,0,0,1.72-1.77v-16.7a40.14,40.14,0,0,1,.31-5.26,10,10,0,0,1,1.4-4.15,7.17,7.17,0,0,1,3.11-2.68,11.38,11.38,0,0,1,4.35-.92h4.3a1.83,1.83,0,0,0,1.79-1.7v-7.14a1.81,1.81,0,0,0-1.76-1.7"/><path class="cls-2" d="M339.83,105.67a15.55,15.55,0,0,0-5.74-4.14,19,19,0,0,0-7.54-1.44,23.94,23.94,0,0,0-8.42,1.44,20,20,0,0,0-6.86,4.14,19.32,19.32,0,0,0-4.59,6.43,27.93,27.93,0,0,0,0,19,19.32,19.32,0,0,0,4.59,6.43,20.33,20.33,0,0,0,6.86,4.14,24.39,24.39,0,0,0,8.42,1.43,21.84,21.84,0,0,0,9.1-2,19.08,19.08,0,0,0,6-4.14,1.82,1.82,0,0,0,0-2.46l-5.46-4.05h0l-.39-.28a1.82,1.82,0,0,0-2.19.29,12.68,12.68,0,0,1-2.58,2.21,9,9,0,0,1-5,1.31A8.79,8.79,0,0,1,320.1,132a10.82,10.82,0,0,1-3.11-6.88.91.91,0,0,1,.77-.88H343a1.82,1.82,0,0,0,1.73-1.81v-1.93a25.85,25.85,0,0,0-1.27-8.37,18.55,18.55,0,0,0-3.63-6.43m-8,10.36H318a.92.92,0,0,1-.91-.86,7.39,7.39,0,0,1,.58-1.89,6.85,6.85,0,0,1,1.67-2.31,8.61,8.61,0,0,1,2.6-1.64,8.73,8.73,0,0,1,3.5-.64,7.12,7.12,0,0,1,5.35,2.15,6.8,6.8,0,0,1,2,4.33.89.89,0,0,1-.89.86"/><path class="cls-2" d="M213.63,130.67h-20.5a.93.93,0,0,1-.84-.8V87.47a1.82,1.82,0,0,0-1.73-1.81h-9a1.82,1.82,0,0,0-1.73,1.82v52.86a1.83,1.83,0,0,0,1.83,1.83h31.85a1.82,1.82,0,0,0,1.82-1.75v-8a1.83,1.83,0,0,0-1.76-1.75"/><path class="cls-2" d="M594,81.18H591.4A1.84,1.84,0,0,0,589.56,83h0v22.25a.64.64,0,0,1-.74.54.5.5,0,0,1-.29-.12.24.24,0,0,0-.09-.08v-.06l-.26-.25a17.77,17.77,0,0,0-4.73-3.38,16.71,16.71,0,0,0-7.54-1.7,21.44,21.44,0,0,0-8.11,1.49,18.26,18.26,0,0,0-6.22,4.15,19.21,19.21,0,0,0-4,6.29,32,32,0,0,0,0,19,19.44,19.44,0,0,0,4,6.3,18.2,18.2,0,0,0,6,4.15A18.52,18.52,0,0,0,575,143.1a17.49,17.49,0,0,0,8.92-2.22,15.91,15.91,0,0,0,4.29-3.54h0l.18-.23.16-.19a.62.62,0,0,1,.48-.23.66.66,0,0,1,.65.59v3a1.82,1.82,0,0,0,1.82,1.83h2.63a1.85,1.85,0,0,0,1.84-1.83V83a1.85,1.85,0,0,0-1.84-1.83m-5.39,47.67a12.67,12.67,0,0,1-6.93,7.42,14.58,14.58,0,0,1-11,0,12.79,12.79,0,0,1-6.93-7.42,28.05,28.05,0,0,1,0-14.27,12.78,12.78,0,0,1,2.71-4.44,12.93,12.93,0,0,1,4.22-3,14.58,14.58,0,0,1,11,0,12.78,12.78,0,0,1,4.11,2.95,12.6,12.6,0,0,1,2.7,4.44,27.84,27.84,0,0,1,0,14.27"/><path class="cls-2" d="M635.73,111.62a17.2,17.2,0,0,0-3.67-6.22,15.63,15.63,0,0,0-5.69-3.86,19.15,19.15,0,0,0-7.25-1.34,20.26,20.26,0,0,0-7.73,1.45,18.35,18.35,0,0,0-6.14,4.07,18.72,18.72,0,0,0-4,6.29,28.1,28.1,0,0,0-1.43,9.18A35.82,35.82,0,0,0,601.1,131a18.57,18.57,0,0,0,3.79,6.29,18.14,18.14,0,0,0,6,4.24,19.52,19.52,0,0,0,8,1.56,23.32,23.32,0,0,0,9.33-1.73,18.1,18.1,0,0,0,6.28-4.72,1.84,1.84,0,0,0-.22-2.43l-2.12-1.66a1.82,1.82,0,0,0-2.21.1,13.87,13.87,0,0,1-11.09,4.64,11.61,11.61,0,0,1-4.76-1,12.29,12.29,0,0,1-3.79-2.63,13.56,13.56,0,0,1-2.62-3.87,14.93,14.93,0,0,1-1.15-6,.92.92,0,0,1,.8-.91h27.84a1.83,1.83,0,0,0,1.83-1.78v-.23a31.27,31.27,0,0,0-1.29-9.27m-6.32,6H607.45a.88.88,0,0,1-.78-.86c.53-3,1.77-6,3.73-7.8a12.18,12.18,0,0,1,8.47-2.91,11.32,11.32,0,0,1,8.23,2.91c1.81,1.77,2.84,4.83,3.11,7.81a.91.91,0,0,1-.78.85"/><path class="cls-2" d="M551,133.75a4.13,4.13,0,0,0-3.11,1.34,4.39,4.39,0,0,0,6.23,6.18l.09-.1a4.41,4.41,0,0,0,0-6.08,4.07,4.07,0,0,0-3.16-1.34"/><path class="cls-2" d="M408.06,105.41a12.46,12.46,0,0,0-5.42-3.85,24.07,24.07,0,0,0-8.62-1.32,28.09,28.09,0,0,0-9.17,1.57,22.32,22.32,0,0,0-6.48,3.53,1.83,1.83,0,0,0,.06,2.53h0l3.73,3.8h0a1.8,1.8,0,0,0,2.55,0l0,0h0a14.13,14.13,0,0,1,3-2.07,11.53,11.53,0,0,1,5.37-1.23,8.21,8.21,0,0,1,5.37,1.86c1.4,1.16,2.14,3.24,2.25,6.57a.91.91,0,0,1-.89.78c-1.4,0-2.89,0-4.46.07a53.55,53.55,0,0,0-5.81.49,34.51,34.51,0,0,0-5.6,1.22,17,17,0,0,0-4.82,2.35,11.09,11.09,0,0,0-3.34,3.83,11.82,11.82,0,0,0-1.23,5.63,11.5,11.5,0,0,0,1.11,5.19,11,11,0,0,0,3,3.74,13,13,0,0,0,4.4,2.26,17.84,17.84,0,0,0,5.18.75,18.23,18.23,0,0,0,7-1.34,11.18,11.18,0,0,0,4.37-3.23h.11a.67.67,0,0,1,.77.11.6.6,0,0,1,.19.44v1.39a1.82,1.82,0,0,0,1.73,1.76h7.5a1.84,1.84,0,0,0,1.75-1.78V122.53a65.61,65.61,0,0,0-.81-10.84,14.71,14.71,0,0,0-2.81-6.22m-7.37,22.24a6.31,6.31,0,0,1-2.78,5.41,10.12,10.12,0,0,1-2.9,1.36,12.11,12.11,0,0,1-3.38.48,7.77,7.77,0,0,1-3.82-1,3.41,3.41,0,0,1-1.83-3.1,3.89,3.89,0,0,1,1.31-3.11,8.68,8.68,0,0,1,3.18-1.67,16.51,16.51,0,0,1,3.89-.67c1.36-.08,2.49-.12,3.38-.12h2.07a.88.88,0,0,1,.85.89Z"/><path class="cls-2" d="M450.66,105.2a10.73,10.73,0,0,0-4.38-3.88,16.56,16.56,0,0,0-7.38-1.41,13.57,13.57,0,0,0-4,.56,15.1,15.1,0,0,0-3.29,1.45,11.44,11.44,0,0,0-2.48,2,8.7,8.7,0,0,0-.68.8.65.65,0,0,1-1.09-.45v-1.57a1.83,1.83,0,0,0-1.82-1.83h-7.88a1.83,1.83,0,0,0-1.84,1.83h0v37.71a1.83,1.83,0,0,0,1.83,1.73H426a1.84,1.84,0,0,0,1.83-1.74v-20a26.8,26.8,0,0,1,.24-3.69,9.27,9.27,0,0,1,1-3.11,5.73,5.73,0,0,1,2.2-2.25,7.58,7.58,0,0,1,3.77-.84A5.18,5.18,0,0,1,440.5,114a11.29,11.29,0,0,1,.73,3.34c.08,1.19.12,2.36.12,3.48v19.69a1.82,1.82,0,0,0,1.82,1.73h8.37a1.83,1.83,0,0,0,1.83-1.74V118.39a44.14,44.14,0,0,0-.56-7.26,15.73,15.73,0,0,0-2.12-5.85"/><path class="cls-2" d="M497.28,81.94h-8.43a1.82,1.82,0,0,0-1.76,1.78v20.09a.63.63,0,0,1-.64.55.61.61,0,0,1-.5-.23h0l-.17-.18a.91.91,0,0,1-.17-.17h0a11.24,11.24,0,0,0-3.94-2.4,20.58,20.58,0,0,0-7-1.15,15.64,15.64,0,0,0-7.41,1.71,17.3,17.3,0,0,0-5.55,4.58,21.36,21.36,0,0,0-3.49,6.58,32.07,32.07,0,0,0,.13,18.11,18.39,18.39,0,0,0,3.85,6.33,17.31,17.31,0,0,0,6,4.14,19.73,19.73,0,0,0,7.81,1.48,13,13,0,0,0,3.86-.56,15.2,15.2,0,0,0,3.43-1.44,14.47,14.47,0,0,0,2.72-1.94l.72-.73.2-.21a.65.65,0,0,1,.46-.2.63.63,0,0,1,.64.52v1.8a1.81,1.81,0,0,0,1.77,1.8h7.46a1.82,1.82,0,0,0,1.76-1.82V83.76h0a1.81,1.81,0,0,0-1.76-1.82m-11.78,47.95a10.57,10.57,0,0,1-14.11,0c-1.66-1.8-2.49-5.47-2.49-8.41s.83-6.26,2.49-8.08a10.57,10.57,0,0,1,14.11,0c1.68,1.82,2.51,5.18,2.51,8.08s-.83,6.61-2.51,8.41"/><path class="cls-2" d="M538.59,106.56a20.38,20.38,0,0,0-6.85-4.14,25.37,25.37,0,0,0-16.81,0,19.87,19.87,0,0,0-6.85,4.14,18.68,18.68,0,0,0-4.57,6.41,27.79,27.79,0,0,0,0,19,18.68,18.68,0,0,0,4.57,6.41,20,20,0,0,0,6.85,4.14,25.37,25.37,0,0,0,16.81,0,20.38,20.38,0,0,0,6.85-4.14,19.32,19.32,0,0,0,4.58-6.41,28,28,0,0,0,0-19,19.32,19.32,0,0,0-4.58-6.41m-8.2,24.16a10.52,10.52,0,0,1-14.11,0c-1.67-1.8-2.51-5.32-2.51-8.29s.84-6.44,2.51-8.24a10.55,10.55,0,0,1,14.11,0c1.67,1.8,2.5,5.32,2.5,8.24s-.83,6.43-2.5,8.29"/></g></g></g><g id="TakeawayCOM_Full_Colour"><path id="House" class="cls-2" d="M95.32,44.94a6.47,6.47,0,0,1,7.16,0,157.15,157.15,0,0,1,15.83,11.4s1.37,1,1.41-.66c0,0-.23-4.76.35-6.22a2.83,2.83,0,0,1,2.65-1.91s6.21.32,10.16.84a3.88,3.88,0,0,1,3.26,3.51s2.53,16.94,3.1,23c0,0,.5,3.11,5,8.38,0,0,9.08,12.74,10.2,15.25,0,0,2.13,4.44-2.44,5,0,0-8.35.84-9.14,1a2.07,2.07,0,0,0-1.87,2.26.2.2,0,0,0,0,.07s-.44,29.45-2.6,43.6c0,0-.55,5.62-3.67,5.48,0,0-8.57-.28-10.56-.22,0,0-.87.06-.74-1.15,0,0,4.36-45.94,1.4-69.18,0,0-.11-3-2.42-3.61,0,0-2.07-.84-4.07,1.9,0,0-13.58,17.26-13.56,41.46,0,0-.25,7.34.87,9.22,0,0,.69,1.28,4.24,1.57l4.49.61s.84,0,.77,1.09c0,0-1,13.48-1.33,15.87a4.62,4.62,0,0,1-.33,1.6s-.16.45-1.57.4c0,0-19.82-.14-22,0,0,0-.93.09-1.14-.49s-1.37-17.4-1.33-19.79a1.23,1.23,0,0,1,.69-1.18,11.9,11.9,0,0,0,5.5-8.75s.28-1.4.12-7.71c0,0,.72-25.84.91-30,0,0,.16-1.4-1.68-1.67a1.7,1.7,0,0,0-2,1.27l0,.15s-1.29,17-1,23.84c0,0,.44,4.41-2.61,4.49,0,0-3,.45-3.11-3.22,0,0,.22-16.58,1-24.77A1.76,1.76,0,0,0,83.43,86a1.8,1.8,0,0,0-2.06,1.49c0,.05,0,.1,0,.15s-1.28,15.85-1,24.23c0,0,.37,4.06-2.87,3.9,0,0-2.71.33-2.86-3.28,0,0,.74-22.7.93-24.46A1.84,1.84,0,0,0,73.94,86h-.18a1.76,1.76,0,0,0-2,1.51s0,.11,0,.17-1.21,27.14-1,35.11c0,0-.11,8.2,5.94,11.52,0,0,.89.52.91,1.3,0,0,.69,14.4,1.3,19.05,0,0,.23,1.1-.77,1.1l-15.22.42s-2.53.18-3.11-2.95c-.5-2.92-3.28-26.95-2.83-46a2.3,2.3,0,0,0-1.85-2.49s-7.8-.73-9.68-1.2a3.23,3.23,0,0,1-2.32-3.94,3.09,3.09,0,0,1,.34-.82S60.32,66.63,95.32,44.94Z"/></g></g></svg>