<svg xmlns="http://www.w3.org/2000/svg" viewBox="0 0 691 203"><defs><style>.cls-1{fill:#ff8000;}.cls-2{fill:#fff;}</style></defs><title>TakeawayCOM-White-Logo-OnOrange-Horizontal-RGB</title><g id="Logo_Base"><rect class="cls-1" width="691" height="203"/></g><g id="TakeawayCOM"><g id="TakeawayCOM_Full_Colour"><g id="TakeawayCOM-2"><path class="cls-2" d="M218.21,93.89V86.3a1.81,1.81,0,0,0-1.75-1.69H175.32a1.8,1.8,0,0,0-1.76,1.76v7.46a1.84,1.84,0,0,0,1.74,1.77h13.46a.94.94,0,0,1,.89.9v42.73a1.81,1.81,0,0,0,1.73,1.81h9a1.8,1.8,0,0,0,1.72-1.74v-43a.93.93,0,0,1,.86-.7h13.52a1.81,1.81,0,0,0,1.73-1.71"/><path class="cls-2" d="M241.13,104.22a12.59,12.59,0,0,0-5.43-3.87A24.22,24.22,0,0,0,227.05,99a28,28,0,0,0-9.25,1.55,21.94,21.94,0,0,0-6.49,3.55,1.82,1.82,0,0,0,.06,2.52h0l3.73,3.82h0a1.82,1.82,0,0,0,2.57,0h0a14.51,14.51,0,0,1,3-2.07,11.79,11.79,0,0,1,5.38-1.23,8.27,8.27,0,0,1,5.39,1.87c1.4,1.17,2.16,3.25,2.26,6.6a.92.92,0,0,1-.9.77h0c-1.4,0-2.89,0-4.47.09a54.1,54.1,0,0,0-5.83.47,35.75,35.75,0,0,0-5.61,1.23,17,17,0,0,0-4.83,2.35,11.41,11.41,0,0,0-3.35,3.83,12,12,0,0,0-1.23,5.67,11.21,11.21,0,0,0,1.12,5.18,10.83,10.83,0,0,0,3,3.74,13.06,13.06,0,0,0,4.43,2.28,17.8,17.8,0,0,0,5.18.76,18.11,18.11,0,0,0,7-1.36,11.16,11.16,0,0,0,4.41-3.24h.12a.65.65,0,0,1,.74.12.61.61,0,0,1,.2.45v1.4a1.82,1.82,0,0,0,1.73,1.75H243a1.81,1.81,0,0,0,1.73-1.77V121.45a67.2,67.2,0,0,0-.8-10.88,14.9,14.9,0,0,0-2.83-6.21m-7.32,22.25a6.44,6.44,0,0,1-.75,3.19,6.73,6.73,0,0,1-2.07,2.24,10.53,10.53,0,0,1-2.91,1.34,11.78,11.78,0,0,1-3.39.49,7.63,7.63,0,0,1-3.84-1,3.39,3.39,0,0,1-1.82-3.19,3.86,3.86,0,0,1,1.31-3.1,8.67,8.67,0,0,1,3.19-1.68,17.21,17.21,0,0,1,3.91-.67c1.38-.08,2.5-.13,3.38-.13h2.07a.93.93,0,0,1,.86.9Z"/><path class="cls-2" d="M360.19,104.22a12.47,12.47,0,0,0-5.41-3.87A24.31,24.31,0,0,0,346.12,99a28.08,28.08,0,0,0-9.26,1.55,22,22,0,0,0-6.48,3.55,1.82,1.82,0,0,0,.05,2.52h0l3.73,3.82h0a1.84,1.84,0,0,0,2.59,0,14.45,14.45,0,0,1,3-2.07,11.77,11.77,0,0,1,5.4-1.23,8.2,8.2,0,0,1,5.37,1.87c1.41,1.17,2.17,3.25,2.27,6.6a.91.91,0,0,1-.9.77h0c-1.4,0-2.89,0-4.47.09a53.92,53.92,0,0,0-5.82.47,36,36,0,0,0-5.63,1.23,17,17,0,0,0-4.82,2.35,11.17,11.17,0,0,0-3.34,3.83,11.87,11.87,0,0,0-1.25,5.67,11.47,11.47,0,0,0,1.12,5.18,11.07,11.07,0,0,0,3,3.74,13.1,13.1,0,0,0,4.44,2.28,18.55,18.55,0,0,0,12.19-.6,11.06,11.06,0,0,0,4.4-3.24h.12a.67.67,0,0,1,.75.12.7.7,0,0,1,.19.45v1.4a1.82,1.82,0,0,0,1.73,1.75h7.54a1.8,1.8,0,0,0,1.72-1.77V121.45a68.33,68.33,0,0,0-.78-10.88,14.92,14.92,0,0,0-2.84-6.21m-7.36,22.25a6.34,6.34,0,0,1-.76,3.19A6.53,6.53,0,0,1,350,132a10.27,10.27,0,0,1-2.91,1.34,11.38,11.38,0,0,1-3.38.49,7.57,7.57,0,0,1-3.83-1,3.42,3.42,0,0,1-1.84-3.19,3.86,3.86,0,0,1,1.32-3.1,8.59,8.59,0,0,1,3.19-1.68,17.3,17.3,0,0,1,3.91-.67c1.38-.08,2.51-.13,3.39-.13h2.07a.94.94,0,0,1,.86.9Z"/><path class="cls-2" d="M463,104.22a12.53,12.53,0,0,0-5.43-3.87A24.13,24.13,0,0,0,448.88,99a28,28,0,0,0-9.25,1.55,22.12,22.12,0,0,0-6.5,3.55,1.83,1.83,0,0,0,.06,2.52h0l3.73,3.82h0a1.84,1.84,0,0,0,2.59,0,14.51,14.51,0,0,1,3-2.07,11.7,11.7,0,0,1,5.39-1.23,8.27,8.27,0,0,1,5.37,1.87c1.41,1.17,2.15,3.25,2.27,6.6a.92.92,0,0,1-.91.77h0c-1.39,0-2.88,0-4.47.09a53.73,53.73,0,0,0-5.81.47,36,36,0,0,0-5.63,1.23,17,17,0,0,0-4.82,2.35,11.21,11.21,0,0,0-3.35,3.83,12,12,0,0,0-1.24,5.67,11.47,11.47,0,0,0,1.12,5.18,10.68,10.68,0,0,0,3,3.74,13.06,13.06,0,0,0,4.41,2.28,18.54,18.54,0,0,0,12.21-.6,11,11,0,0,0,4.4-3.24h.12a.66.66,0,0,1,.74.12.64.64,0,0,1,.19.45v1.4a1.83,1.83,0,0,0,1.74,1.75h7.52a1.82,1.82,0,0,0,1.75-1.77V121.45a67.2,67.2,0,0,0-.8-10.88,14.9,14.9,0,0,0-2.83-6.21m-7.37,22.25a6.44,6.44,0,0,1-.75,3.19,6.53,6.53,0,0,1-2.07,2.24,10.27,10.27,0,0,1-2.91,1.34,11.43,11.43,0,0,1-3.38.49,7.57,7.57,0,0,1-3.83-1,3.4,3.4,0,0,1-1.84-3.19,3.86,3.86,0,0,1,1.32-3.1,8.59,8.59,0,0,1,3.19-1.68,17.21,17.21,0,0,1,3.91-.67c1.35-.08,2.49-.13,3.38-.13h2.07a.93.93,0,0,1,.85.9Z"/><path class="cls-2" d="M321,104.58a15.71,15.71,0,0,0-5.73-4.14A19.25,19.25,0,0,0,307.78,99a24.67,24.67,0,0,0-8.42,1.43,20.38,20.38,0,0,0-6.85,4.14,19.39,19.39,0,0,0-4.59,6.42,28,28,0,0,0,0,19.05,19.21,19.21,0,0,0,4.59,6.41,20,20,0,0,0,6.85,4.14,24.4,24.4,0,0,0,8.42,1.44,21.77,21.77,0,0,0,9.09-2,19.08,19.08,0,0,0,5.95-4.14,1.82,1.82,0,0,0,0-2.46l-5.42-4h0l-.39-.28a1.82,1.82,0,0,0-2.19.29,13.64,13.64,0,0,1-2.58,2.21,9.1,9.1,0,0,1-5,1.31,8.86,8.86,0,0,1-5.91-2.07A10.83,10.83,0,0,1,298.3,124a.89.89,0,0,1,.74-.88h25.23a1.81,1.81,0,0,0,1.72-1.81v-2a25.32,25.32,0,0,0-1.27-8.37,18.76,18.76,0,0,0-3.63-6.42m-8,10.35H299.21a.9.9,0,0,1-.9-.86,7.39,7.39,0,0,1,.58-1.89,7,7,0,0,1,1.67-2.3,8.72,8.72,0,0,1,2.59-1.65,9.17,9.17,0,0,1,3.51-.63,7.05,7.05,0,0,1,5.33,2.15,6.81,6.81,0,0,1,2,4.32.92.92,0,0,1-.91.86"/><path class="cls-2" d="M275.17,121.09h0l-.27-.37a1.76,1.76,0,0,1,0-1.85l13.94-17.4a.91.91,0,0,0-.08-1.25.89.89,0,0,0-.59-.21h-11a3.67,3.67,0,0,0-2.91,1.43h0l-.6.77L263,116l-.14.16h0l-.09.09h-.07a.67.67,0,0,1-.75-.13.74.74,0,0,1-.17-.33V82.48A1.81,1.81,0,0,0,260,80.77h-8.58a1.82,1.82,0,0,0-1.69,1.74V139.3A1.82,1.82,0,0,0,251.5,141H260a1.81,1.81,0,0,0,1.73-1.7V123.26a.65.65,0,0,1,.17-.34.67.67,0,0,1,.75-.12h.07a.24.24,0,0,1,.09.08h0v.06l.21.24,10.43,15.67h0l.6.76h0A3.62,3.62,0,0,0,276.9,141h11.6a.67.67,0,0,0,.34-.16.89.89,0,0,0,.2-1Z"/><path class="cls-2" d="M430,102.88a3.48,3.48,0,0,0,.21-1.2.81.81,0,0,0,0-.22h0a1.83,1.83,0,0,0-1.69-1.45h-6.82a3.65,3.65,0,0,0-3.57,2.87h0l-.22.82-5.76,21.11a.84.84,0,0,1-.56.28.79.79,0,0,1-.64-.43l-.09-.33h0L405.06,103h0l-.09-.38a3.7,3.7,0,0,0-3.49-2.55h-7.41a3.66,3.66,0,0,0-3.57,2.84h0v.2l-.16.64-5.24,21a.7.7,0,0,1-1,.25.75.75,0,0,1-.25-.25l-6.21-21.06-.3-1a.6.6,0,0,0,0-.19h0a3.7,3.7,0,0,0-3.47-2.48H366.4a1.84,1.84,0,0,0-1.68,1.45h0a.88.88,0,0,0,0,.23,3.73,3.73,0,0,0,.2,1.2l12.36,35.72a2.83,2.83,0,0,0,.17.4,3.64,3.64,0,0,0,3,2.07h7.25a3.68,3.68,0,0,0,3.22-2.57h0l.3-1,5.7-20.45a.68.68,0,0,1,1.13,0L404.57,138a10.21,10.21,0,0,0,.44,1.16,3.64,3.64,0,0,0,3,2.07h7.06a3.58,3.58,0,0,0,3-2.07h0c.08-.16.33-.85.48-1.32l11.6-34.54a.46.46,0,0,1,.06-.21"/><path class="cls-2" d="M508.81,101.43h0a2.81,2.81,0,0,1-.1-.31,1.86,1.86,0,0,0-1.56-1.1H499.9a3.68,3.68,0,0,0-3.2,2.14h0a1.61,1.61,0,0,0-.12.33l-.05.18a1.71,1.71,0,0,0-.09.3l-.21.7h0l-6.6,21.57h0l-.09.26a.84.84,0,0,1-.87.64.86.86,0,0,1-.84-.55L480,103.66l-.09-.28-.53-1.48a3.65,3.65,0,0,0-3.11-1.9h-8.19a1.84,1.84,0,0,0-1.32,1,1.4,1.4,0,0,0-.09.29h0a1.87,1.87,0,0,0,.06.94l15.6,38a3.63,3.63,0,0,1-.13,2.41v.11l-.29.72c-.42,1-.82,2-1.19,2.79a7.1,7.1,0,0,1-1.39,2.07,5.44,5.44,0,0,1-2.12,1.28,10.39,10.39,0,0,1-3.28.44h-5.17a1.81,1.81,0,0,0-1.76,1.77v6.51a1.82,1.82,0,0,0,1.77,1.77h6.92a23.88,23.88,0,0,0,6.94-.84,11.12,11.12,0,0,0,4.35-2.48,13.45,13.45,0,0,0,2.83-4c.74-1.61,1.51-3.44,2.3-5.51l16.72-45.17a1.75,1.75,0,0,0,0-.72"/><path class="cls-2" d="M507.16,132.73a4,4,0,0,0-3.11,1.32,4.38,4.38,0,0,0,6.21,6.18l.1-.1a4.39,4.39,0,0,0,0-6.08,4.06,4.06,0,0,0-3.11-1.32"/><path class="cls-2" d="M581.6,104.62a18.77,18.77,0,0,0-6.38-4.08,23.16,23.16,0,0,0-16.12,0,18.59,18.59,0,0,0-6.36,4.08,18.86,18.86,0,0,0-4.15,6.21c-1,2.41-1.53,7.2-1.53,10.16a26.77,26.77,0,0,0,1.53,9.18,18.53,18.53,0,0,0,10.56,10.36,23.19,23.19,0,0,0,16.13,0,18.24,18.24,0,0,0,10.51-10.29,26.54,26.54,0,0,0,1.54-9.18c0-3-.52-7.74-1.54-10.16a18.94,18.94,0,0,0-4.14-6.21m-2,23a12.6,12.6,0,0,1-2.7,4.44,13.21,13.21,0,0,1-4.23,3,14.74,14.74,0,0,1-11,0,13.52,13.52,0,0,1-4.24-3,13.22,13.22,0,0,1-2.69-4.44,22.7,22.7,0,0,1-.94-6.65,29.68,29.68,0,0,1,.94-7.62,12.6,12.6,0,0,1,6.93-7.41,14.37,14.37,0,0,1,11,0,12.87,12.87,0,0,1,4.23,3,12.6,12.6,0,0,1,2.7,4.44,30.11,30.11,0,0,1,.92,7.62,23,23,0,0,1-.92,6.65"/><path class="cls-2" d="M522.26,109a10.83,10.83,0,0,1,4-3,13.4,13.4,0,0,1,5.55-1,12.31,12.31,0,0,1,5.18,1,11.71,11.71,0,0,1,3.26,2.33,1.84,1.84,0,0,0,2.37,0l2.29-2.07a1.82,1.82,0,0,0,.18-2.49,16.82,16.82,0,0,0-5.32-3.29A21.8,21.8,0,0,0,531.82,99a20.51,20.51,0,0,0-7.93,1.5,18.33,18.33,0,0,0-6.21,4.14,18.55,18.55,0,0,0-4,6.29,33.22,33.22,0,0,0,0,19.1,18.73,18.73,0,0,0,4,6.29,17.12,17.12,0,0,0,6.16,4.15,22.17,22.17,0,0,0,15.8,0,16.09,16.09,0,0,0,5.27-3.37,1.81,1.81,0,0,0-.1-2.42l-1.95-1.9a1.84,1.84,0,0,0-2.48,0,11.23,11.23,0,0,1-8.51,3.39,12.47,12.47,0,0,1-5.24-1.09,11.72,11.72,0,0,1-4-3,14.63,14.63,0,0,1-2.58-4.48,25.75,25.75,0,0,1-.92-7,29.91,29.91,0,0,1,.81-7,13.5,13.5,0,0,1,2.33-4.5"/><path class="cls-2" d="M647.27,108.36a12.42,12.42,0,0,0-2.42-5,10.71,10.71,0,0,0-4.43-3.11,18.4,18.4,0,0,0-6.77-1.1,12.32,12.32,0,0,0-7.09,1.9,16.42,16.42,0,0,0-4,4h0l-.19.26h0l-.09.14a.64.64,0,0,1-.47.21.67.67,0,0,1-.58-.36c0-.07-.11-.18-.16-.3-.19-.3-.37-.61-.57-1a9.14,9.14,0,0,0-2.13-2.34,12.94,12.94,0,0,0-3.43-1.85,16.68,16.68,0,0,0-9.47-.16,14.24,14.24,0,0,0-3.63,1.62,12.21,12.21,0,0,0-2.78,2.29c-.27.3-.51.6-.74.91l-.07.08a.27.27,0,0,1-.09.12h0a.65.65,0,0,1-.47.2.64.64,0,0,1-.63-.52v-2.62a1.81,1.81,0,0,0-1.76-1.75H593a1.82,1.82,0,0,0-1.75,1.81v37.37a1.82,1.82,0,0,0,1.77,1.79h2.72a1.85,1.85,0,0,0,1.79-1.83V119.43a23.91,23.91,0,0,1,.68-5.9,13.37,13.37,0,0,1,2.07-4.58,9.35,9.35,0,0,1,3.62-3,12.38,12.38,0,0,1,5.29-1q3.88,0,5.56,2.62c1.13,1.75,1.69,4.71,1.69,8.9v22.78a1.82,1.82,0,0,0,1.78,1.81H621a1.84,1.84,0,0,0,1.78-1.83V116.06a12.52,12.52,0,0,1,.76-4.54A10.55,10.55,0,0,1,625.6,108a9.39,9.39,0,0,1,3.11-2.26,9,9,0,0,1,3.79-.81,10,10,0,0,1,4.51.89,7.6,7.6,0,0,1,2.82,2.33,9,9,0,0,1,1.46,3.31,18.51,18.51,0,0,1,.39,3.78v24a1.82,1.82,0,0,0,1.78,1.78h2.73a1.83,1.83,0,0,0,1.78-1.83V114.93a26.9,26.9,0,0,0-.72-6.57"/></g><path id="House" class="cls-2" d="M95.3,43.92a6.42,6.42,0,0,1,7.15,0,153.84,153.84,0,0,1,15.82,11.39s1.37.95,1.41-.67c0,0-.23-4.75.35-6.21a2.79,2.79,0,0,1,2.64-1.9s6.21.31,10.16.83a3.87,3.87,0,0,1,3.25,3.5s2.53,16.93,3.1,23c0,0,.5,3.11,5,8.37,0,0,9.07,12.73,10.19,15.24,0,0,2.14,4.43-2.43,5,0,0-8.35.84-9.13,1a2.07,2.07,0,0,0-1.87,2.26v.06s-.43,29.43-2.58,43.57c0,0-.56,5.61-3.68,5.47,0,0-8.56-.28-10.55-.22,0,0-.87.06-.74-1.15,0,0,4.36-45.9,1.4-69.11,0,0-.11-3-2.41-3.61,0,0-2.07-.84-4.07,1.9,0,0-13.57,17.24-13.55,41.42,0,0-.25,7.34.87,9.21,0,0,.69,1.28,4.23,1.57l4.5.6s.83,0,.76,1.1c0,0-1,13.46-1.32,15.85a4.86,4.86,0,0,1-.33,1.6s-.17.45-1.58.4c0,0-19.79-.14-22,0,0,0-.93.1-1.14-.48s-1.38-17.39-1.33-19.78a1.23,1.23,0,0,1,.69-1.18,11.89,11.89,0,0,0,5.5-8.74s.28-1.4.11-7.7c0,0,.73-25.82.91-30,0,0,.16-1.4-1.68-1.67a1.7,1.7,0,0,0-2,1.26l0,.16s-1.28,17-1,23.81c0,0,.43,4.41-2.61,4.49,0,0-3,.45-3.11-3.22,0,0,.22-16.56,1-24.74a1.76,1.76,0,0,0-1.63-1.78,1.78,1.78,0,0,0-2,1.48.77.77,0,0,0,0,.15s-1.27,15.84-1,24.21c0,0,.38,4.06-2.86,3.9,0,0-2.71.32-2.86-3.28,0,0,.74-22.67.93-24.43a1.83,1.83,0,0,0-1.58-2.06h-.18a1.73,1.73,0,0,0-2,1.5,1.11,1.11,0,0,0,0,.17s-1.21,27.12-1,35.08c0,0-.12,8.19,5.93,11.51,0,0,.89.52.91,1.3,0,0,.68,14.39,1.3,19,0,0,.22,1.11-.77,1.11L62.91,155s-2.53.18-3.11-2.95c-.49-2.91-3.28-26.92-2.82-46a2.31,2.31,0,0,0-1.86-2.5s-7.78-.72-9.67-1.19a3.23,3.23,0,0,1-2.32-3.93,3.18,3.18,0,0,1,.35-.83S60.33,65.59,95.3,43.92Z"/></g></g></svg>