<svg xmlns="http://www.w3.org/2000/svg" viewBox="0 0 749.52 203"><defs><style>.cls-1{fill:#ff8000;}.cls-2{fill:#fff;}</style></defs><title>ThuisbezorgdNL-White-Logo-OnOrange-Horizontal-RGB</title><g id="Logo_Base"><rect class="cls-1" width="749.52" height="203"/></g><g id="ThuisbezorgdNL"><g id="ThuisbezorgdNL-2"><g id="ThuisbezorgdNL_Full_Colour"><g id="ThuisbezorgdNL-2-2"><path class="cls-2" d="M517,104.59a20.38,20.38,0,0,0-6.85-4.14,25.37,25.37,0,0,0-16.81,0,20.38,20.38,0,0,0-6.85,4.14A18.82,18.82,0,0,0,481.9,111a27.87,27.87,0,0,0,0,19,19.09,19.09,0,0,0,4.57,6.42,20.1,20.1,0,0,0,6.85,4.13,25.25,25.25,0,0,0,16.81,0,20,20,0,0,0,6.85-4.13,19.39,19.39,0,0,0,4.59-6.42,28.11,28.11,0,0,0,0-19,19.11,19.11,0,0,0-4.59-6.41m-8.19,24.15a10.5,10.5,0,0,1-14.11,0c-1.68-1.8-2.51-5.31-2.51-8.28s.83-6.43,2.51-8.27a10.55,10.55,0,0,1,14.11,0c1.66,1.8,2.5,5.32,2.5,8.27s-.84,6.44-2.5,8.28"/><path class="cls-2" d="M216.4,84.62H175.3a1.83,1.83,0,0,0-1.75,1.78v7.44a1.82,1.82,0,0,0,1.73,1.77h13.45a.92.92,0,0,1,.88.9v42.68a1.83,1.83,0,0,0,1.73,1.81h9a1.83,1.83,0,0,0,1.73-1.73v-43a.92.92,0,0,1,.85-.69H216.4a1.82,1.82,0,0,0,1.72-1.7V86.33a1.83,1.83,0,0,0-1.74-1.71"/><path class="cls-2" d="M437.14,104.59a15.33,15.33,0,0,0-5.74-4.14A19,19,0,0,0,423.88,99a24.28,24.28,0,0,0-8.4,1.43,19.87,19.87,0,0,0-6.85,4.14,19,19,0,0,0-4.57,6.4,27.76,27.76,0,0,0,0,19,19.19,19.19,0,0,0,4.57,6.42,20.26,20.26,0,0,0,6.85,4.13,24,24,0,0,0,8.4,1.44,21.75,21.75,0,0,0,9.08-2,19.24,19.24,0,0,0,6-4.14,1.8,1.8,0,0,0,0-2.45l-5.42-4h0l-.4-.27a1.82,1.82,0,0,0-2.18.28,13.47,13.47,0,0,1-2.56,2.21,9,9,0,0,1-5,1.31,8.81,8.81,0,0,1-5.89-2.07,10.84,10.84,0,0,1-3.1-6.87.91.91,0,0,1,.77-.88h25.1a1.85,1.85,0,0,0,1.74-1.82v-1.94A26.07,26.07,0,0,0,440.7,111a18.55,18.55,0,0,0-3.62-6.4m-8,10.34H415.31a.92.92,0,0,1-.92-.86,7.8,7.8,0,0,1,.58-1.89,7.2,7.2,0,0,1,1.67-2.31,8.83,8.83,0,0,1,6.1-2.26,7.07,7.07,0,0,1,5.33,2.14,6.79,6.79,0,0,1,2,4.32.9.9,0,0,1-.9.86"/><path class="cls-2" d="M394.73,105.33a17.15,17.15,0,0,0-5.54-4.58,15.6,15.6,0,0,0-7.4-1.71,20.21,20.21,0,0,0-7,1.15,11.21,11.21,0,0,0-3.94,2.41h0a.3.3,0,0,1-.08.08l-.24.24h0l-.07.07a.64.64,0,0,1-.44.17.66.66,0,0,1-.64-.62v-20a1.82,1.82,0,0,0-1.72-1.76H359.2a1.84,1.84,0,0,0-1.71,1.81V139.2a1.83,1.83,0,0,0,1.74,1.81h7.5a1.86,1.86,0,0,0,1.76-1.76v-1.82a.64.64,0,0,1,.63-.55.6.6,0,0,1,.44.18h0l.23.22c.21.24.45.47.7.71a13.32,13.32,0,0,0,2.71,1.95,17.35,17.35,0,0,0,3.38,1.44,13.3,13.3,0,0,0,3.91.56,20,20,0,0,0,7.8-1.48,17.26,17.26,0,0,0,6-4.14,18.11,18.11,0,0,0,3.87-6.33,32.34,32.34,0,0,0,.13-18.11,21.58,21.58,0,0,0-3.51-6.57m-9.71,23.41a10.55,10.55,0,0,1-14.1,0c-1.68-1.81-2.51-5.47-2.51-8.39s.83-6.29,2.51-8.1a10.55,10.55,0,0,1,14.1,0c1.66,1.81,2.5,5.17,2.5,8.1s-.84,6.58-2.5,8.39"/><path class="cls-2" d="M641.05,80.78h-8.4a1.83,1.83,0,0,0-1.76,1.79v20.09a.64.64,0,0,1-.63.56.67.67,0,0,1-.51-.24v0l-.17-.17c0-.06-.12-.11-.17-.17h0a11.08,11.08,0,0,0-3.93-2.41,20.19,20.19,0,0,0-7-1.15,15.55,15.55,0,0,0-7.48,1.73,17.15,17.15,0,0,0-5.54,4.58,21.55,21.55,0,0,0-3.5,6.57,32.43,32.43,0,0,0,.12,18.11,18.48,18.48,0,0,0,3.86,6.33,17.31,17.31,0,0,0,6,4.14,19.94,19.94,0,0,0,7.81,1.48,13.25,13.25,0,0,0,3.86-.56,16.7,16.7,0,0,0,3.44-1.44A14.32,14.32,0,0,0,629.8,138l.72-.73.2-.2a.64.64,0,0,1,.92,0,.63.63,0,0,1,.18.34v1.8a1.84,1.84,0,0,0,1.76,1.8h7.47a1.85,1.85,0,0,0,1.77-1.83V82.6h0a1.83,1.83,0,0,0-1.76-1.82m-11.74,48a10.55,10.55,0,0,1-14.1,0c-1.68-1.81-2.5-5.47-2.5-8.4s.82-6.28,2.5-8.09a10.55,10.55,0,0,1,14.1,0c1.68,1.81,2.51,5.17,2.51,8.09s-.83,6.59-2.51,8.4"/><path class="cls-2" d="M310.94,80.88a6.9,6.9,0,1,0,4.9,2.06,6.7,6.7,0,0,0-4.9-2.06"/><path class="cls-2" d="M315.07,100H306.8a1.82,1.82,0,0,0-1.82,1.76v37.5a1.81,1.81,0,0,0,1.79,1.75h8.3a1.82,1.82,0,0,0,1.8-1.75V101.79A1.84,1.84,0,0,0,315,100"/><path class="cls-2" d="M595.21,100h-7.49a1.81,1.81,0,0,0-1.74,1.73v1.9a.66.66,0,0,1-.78.5.61.61,0,0,1-.33-.19l-.12-.13a9.38,9.38,0,0,0-.85-.82,13.33,13.33,0,0,0-2.87-2,17.76,17.76,0,0,0-3.77-1.44,18.89,18.89,0,0,0-4.67-.56,15.79,15.79,0,0,0-7.41,1.72,17.43,17.43,0,0,0-5.53,4.5,20.68,20.68,0,0,0-3.52,6.45,33.68,33.68,0,0,0-1.23,8.92,27.82,27.82,0,0,0,1.37,8.91,18.56,18.56,0,0,0,3.86,6.34,17.39,17.39,0,0,0,6,4.14,19.81,19.81,0,0,0,7.8,1.47,16.57,16.57,0,0,0,5.77-1.15,11.27,11.27,0,0,0,3.78-2.4h0a.47.47,0,0,1,.1-.1c.1-.1.2-.2.29-.31h0a.67.67,0,0,1,.48-.2.62.62,0,0,1,.64.61v2.2a9.43,9.43,0,0,1-2.58,6.82q-2.58,2.66-8.08,2.65a16.44,16.44,0,0,1-6.74-1.35,24.59,24.59,0,0,1-4.41-2.56,1.86,1.86,0,0,0-2.42.36l-4.66,7a1.82,1.82,0,0,0,.45,2.49,23.11,23.11,0,0,0,7.82,3.47,45.37,45.37,0,0,0,10.2,1.14q11.29,0,16.84-5.68T597,137.74v-36a1.81,1.81,0,0,0-1.75-1.74m-10,25a9.5,9.5,0,0,1-2.07,3,10.46,10.46,0,0,1-3.1,2.07,9.31,9.31,0,0,1-7.53,0,10.47,10.47,0,0,1-3-2.07,9.34,9.34,0,0,1-2.07-3,14,14,0,0,1-.71-4.49,17.67,17.67,0,0,1,.71-5.06,9.09,9.09,0,0,1,2.07-3,10.09,10.09,0,0,1,3-2.07,9.31,9.31,0,0,1,7.53,0,10.09,10.09,0,0,1,3.1,2.07,9.35,9.35,0,0,1,2.07,3,18,18,0,0,1,.72,5.06,14.3,14.3,0,0,1-.72,4.49"/><path class="cls-2" d="M255.49,104.3a10.64,10.64,0,0,0-4.33-3.87,16.55,16.55,0,0,0-7.34-1.4,13.72,13.72,0,0,0-4,.56,12.49,12.49,0,0,0-3.18,1.44,10,10,0,0,0-2.31,2,.39.39,0,0,0-.08.1l-.22.27h0l-.13.16a.64.64,0,0,1-.9-.07.56.56,0,0,1-.13-.24V82.55a1.85,1.85,0,0,0-1.81-1.81H222.7a1.81,1.81,0,0,0-1.76,1.81v56.63a1.83,1.83,0,0,0,1.81,1.83H231a1.84,1.84,0,0,0,1.82-1.83h0V119.43a25,25,0,0,1,.24-3.67,8.78,8.78,0,0,1,1-3.11,5.79,5.79,0,0,1,2.19-2.23,7.48,7.48,0,0,1,3.74-.83,5.1,5.1,0,0,1,5.37,3.43,10.61,10.61,0,0,1,.73,3.3c.07,1.2.12,2.34.12,3.46v19.44a1.85,1.85,0,0,0,1.81,1.83h8.28a1.84,1.84,0,0,0,1.83-1.83h0V117.31a44.91,44.91,0,0,0-.55-7.24,15.59,15.59,0,0,0-2.12-5.82"/><path class="cls-2" d="M552.7,99.05h-2.24a11.53,11.53,0,0,0-6.61,1.79,13.26,13.26,0,0,0-3.29,3.35h0l-.15.22h0l-.12.18a.63.63,0,0,1-.47.2.65.65,0,0,1-.64-.51v-2.49a1.81,1.81,0,0,0-1.81-1.79h-8.28a1.82,1.82,0,0,0-1.82,1.65v37.72A1.81,1.81,0,0,0,529,141h8.4a1.81,1.81,0,0,0,1.77-1.8V122.54a38.45,38.45,0,0,1,.33-5.25,10,10,0,0,1,1.39-4.14,7.18,7.18,0,0,1,3.1-2.67,11.06,11.06,0,0,1,4.32-.93h4.4a1.82,1.82,0,0,0,1.78-1.7v-7.09a1.81,1.81,0,0,0-1.75-1.69"/><path class="cls-2" d="M348.32,118.65a17.26,17.26,0,0,0-4.83-2l-4.83-1.17a18.77,18.77,0,0,1-3.72-1.27,2.36,2.36,0,0,1-1.46-2.23,2.7,2.7,0,0,1,1.41-2.61,6.22,6.22,0,0,1,2.94-.76,8.16,8.16,0,0,1,5.74,2.18,1.84,1.84,0,0,0,2.41,0l4.89-5.17a1.82,1.82,0,0,0,0-2.36,14.33,14.33,0,0,0-5.42-3.1,26.48,26.48,0,0,0-7.7-1.17,22.09,22.09,0,0,0-5.94.8,15.17,15.17,0,0,0-5.17,2.48,12.65,12.65,0,0,0-3.64,4.29,13.25,13.25,0,0,0-1.39,6.21,11.44,11.44,0,0,0,1.47,6.21,10.27,10.27,0,0,0,3.72,3.57,19.2,19.2,0,0,0,4.83,2l4.83,1.18a16.45,16.45,0,0,1,3.73,1.34,2.6,2.6,0,0,1,1.46,2.41,2.31,2.31,0,0,1-1.66,2.31,10.25,10.25,0,0,1-3.72.63,9.58,9.58,0,0,1-4.72-1.12,11.44,11.44,0,0,1-2.54-2,1.82,1.82,0,0,0-2.42.16l-4.92,5.81a1.81,1.81,0,0,0,.3,2.47h0a15,15,0,0,0,5.66,3.1,28.67,28.67,0,0,0,8.17,1.22,31.28,31.28,0,0,0,6.26-.63,17,17,0,0,0,5.71-2.19,12.79,12.79,0,0,0,4.14-4.14,12.14,12.14,0,0,0,1.63-6.53,11.59,11.59,0,0,0-1.47-6.2,11.07,11.07,0,0,0-3.74-3.65"/><path class="cls-2" d="M297.81,100h-8.28a1.84,1.84,0,0,0-1.81,1.74v19.84a26.27,26.27,0,0,1-.25,3.66,9,9,0,0,1-1,3.11,5.63,5.63,0,0,1-2.18,2.23,7.4,7.4,0,0,1-3.75.84,5.7,5.7,0,0,1-3.54-1,5.9,5.9,0,0,1-1.85-2.48,10.93,10.93,0,0,1-.7-3.3c-.08-1.2-.11-2.34-.11-3.46V101.73a1.87,1.87,0,0,0-1.82-1.73h-8.28a1.83,1.83,0,0,0-1.89,1.77V123.7a42.75,42.75,0,0,0,.56,7.24,16.09,16.09,0,0,0,2.06,5.82,10.84,10.84,0,0,0,4.35,3.87,16.65,16.65,0,0,0,7.33,1.38,13.72,13.72,0,0,0,4-.56,14.78,14.78,0,0,0,3.26-1.42,11.74,11.74,0,0,0,2.56-2c.25-.27.47-.54.67-.8a.6.6,0,0,1,.44-.18.65.65,0,0,1,.64.62v1.57A1.84,1.84,0,0,0,290,141h7.81a1.83,1.83,0,0,0,1.83-1.82V101.73a1.83,1.83,0,0,0-1.83-1.73"/><path class="cls-2" d="M477,131.46H458.78a.65.65,0,0,1-.53-.64.75.75,0,0,1,.18-.45l.26-.24.2-.2,17.2-16.34,1-1a3.64,3.64,0,0,0,1.23-2.62v-8.23a1.84,1.84,0,0,0-1.82-1.82H446.68a1.83,1.83,0,0,0-1.82,1.79v6a1.83,1.83,0,0,0,1.82,1.79H463a.65.65,0,0,1,.58.64.68.68,0,0,1-.12.37l-15.38,14.94h0l-2.24,2.17-.41.41a3.65,3.65,0,0,0-1,2.48v8.7a1.82,1.82,0,0,0,1.8,1.77H477a1.83,1.83,0,0,0,1.81-1.82h0v-5.91h0a1.83,1.83,0,0,0-1.81-1.82"/><path class="cls-2" d="M704.77,80.16H702A1.83,1.83,0,0,0,700.21,82v57.22A1.81,1.81,0,0,0,702,141h2.72a1.82,1.82,0,0,0,1.78-1.82V82a1.82,1.82,0,0,0-1.75-1.81"/><path class="cls-2" d="M691,103.31a11.89,11.89,0,0,0-4.49-3.1,16.53,16.53,0,0,0-6.41-1.14,15.08,15.08,0,0,0-8,2.23,13.25,13.25,0,0,0-2.78,2.29l-.53.62h0l-.2.28a.64.64,0,0,1-.1.13h0a.56.56,0,0,1-.46.19.64.64,0,0,1-.63-.53v-2.49a1.84,1.84,0,0,0-1.78-1.79h-2.28a1.83,1.83,0,0,0-1.77,1.8v37.44a1.83,1.83,0,0,0,1.77,1.77h2.74a1.81,1.81,0,0,0,1.78-1.82h0V119.38a23.45,23.45,0,0,1,.69-5.9,13.28,13.28,0,0,1,2.07-4.6,9.42,9.42,0,0,1,3.63-3,12.45,12.45,0,0,1,5.28-1c3,0,5.17.93,6.55,2.76a12.1,12.1,0,0,1,2.07,7.5V139.2a1.8,1.8,0,0,0,1.77,1.82h2.75a1.82,1.82,0,0,0,1.77-1.8V114.45a22.09,22.09,0,0,0-.85-6.2,12.75,12.75,0,0,0-2.62-4.89"/><path class="cls-2" d="M651.9,132.74a4.05,4.05,0,0,0-3.15,1.33,4.37,4.37,0,0,0,6.21,6.16l.1-.09a4.44,4.44,0,0,0,0-6.07,4.12,4.12,0,0,0-3.11-1.33"/></g></g></g><g id="TakeawayCOM_Full_Colour"><path id="House" class="cls-2" d="M95.29,44a6.42,6.42,0,0,1,7.15,0,153.84,153.84,0,0,1,15.82,11.39s1.37,1,1.41-.67c0,0-.22-4.75.35-6.21a2.81,2.81,0,0,1,2.65-1.9s6.21.31,10.15.84a3.84,3.84,0,0,1,3.25,3.5s2.54,16.92,3.11,23c0,0,.5,3.11,5,8.37,0,0,9.07,12.73,10.19,15.24,0,0,2.13,4.43-2.44,5,0,0-8.34.84-9.13,1a2.08,2.08,0,0,0-1.87,2.26s0,0,0,.06-.44,29.43-2.59,43.57c0,0-.56,5.61-3.68,5.47,0,0-8.56-.28-10.55-.22,0,0-.87.06-.73-1.15,0,0,4.36-45.9,1.4-69.11,0,0-.12-3-2.42-3.61,0,0-2.07-.84-4.06,1.9,0,0-13.58,17.24-13.56,41.42,0,0-.25,7.34.87,9.21,0,0,.7,1.29,4.24,1.58l4.49.6s.84,0,.77,1.09c0,0-1,13.46-1.33,15.85a4.86,4.86,0,0,1-.33,1.6s-.17.45-1.57.4c0,0-19.8-.14-22,0,0,0-.93.1-1.13-.48s-1.38-17.39-1.34-19.78a1.24,1.24,0,0,1,.69-1.18,11.86,11.86,0,0,0,5.5-8.74s.28-1.4.12-7.7c0,0,.72-25.82.91-30,0,0,.15-1.4-1.68-1.67a1.69,1.69,0,0,0-2,1.26l0,.16s-1.29,17-1,23.81c0,0,.44,4.41-2.61,4.49,0,0-3,.45-3.1-3.22,0,0,.22-16.56.94-24.74A1.75,1.75,0,0,0,83.41,85a1.79,1.79,0,0,0-2,1.48s0,.1,0,.15-1.27,15.85-1,24.21c0,0,.37,4.06-2.87,3.9,0,0-2.7.33-2.86-3.28,0,0,.75-22.67.94-24.43A1.84,1.84,0,0,0,73.94,85h-.19a1.75,1.75,0,0,0-2,1.5,1,1,0,0,0,0,.17s-1.21,27.12-1,35.08c0,0-.11,8.19,5.93,11.52,0,0,.9.51.92,1.29,0,0,.68,14.39,1.29,19,0,0,.23,1.11-.77,1.11l-15.21.41s-2.52.18-3.1-2.95c-.5-2.91-3.28-26.92-2.83-46a2.3,2.3,0,0,0-1.85-2.49s-7.79-.73-9.67-1.19a3.23,3.23,0,0,1-2.32-3.94,3.16,3.16,0,0,1,.34-.83S60.33,65.64,95.29,44Z"/></g></g></svg>